# xmcd CD database file
#
# Track frame offsets:
#	150
#	23369
#	44923
#	68995
#	84244
#	117663
#	144626
#	174477
#	198322
#	221272
#	230669
#	251769
#	268089
#	296912
#
# Disc length: 4320 seconds
#
# Revision: 0
# Processed by: cddbd v1.5PL3 Copyright (c) Steve Scherf et al.
# Submitted via: CDex 1.51
#
DISCID=d810de0e
DTITLE=The Waterboys - Secret Life of the Waterboys 81-85
DYEAR=1994
DGENRE=Blues
TTITLE0=Medicine Bow
TTITLE1=That was the River
TTITLE2=A Pagan Place
TTITLE3=Billy Sparks
TTITLE4=Savage Earth Heart
TTITLE5=Dont Bang the Drum
TTITLE6=The Ways of Men
TTITLE7=Rags (Second Amendment)
TTITLE8=The Earth only Endures
TTITLE9=Somebody might wave back
TTITLE10=Going to Paris
TTITLE11=Bury my Heart
TTITLE12=Out of Control
TTITLE13=Love that Kills
EXTD=YEAR: 1994
EXTT0=
EXTT1=
EXTT2=
EXTT3=
EXTT4=
EXTT5=
EXTT6=
EXTT7=
EXTT8=
EXTT9=
EXTT10=
EXTT11=
EXTT12=
EXTT13=
PLAYORDER=
